<?xml version="1.0" encoding="utf-8"?>
<!-- Generator: Adobe Illustrator 23.0.3, SVG Export Plug-In . SVG Version: 6.00 Build 0)  -->
<svg version="1.1" id="Слой_1" xmlns="http://www.w3.org/2000/svg" xmlns:xlink="http://www.w3.org/1999/xlink" x="0px" y="0px"
	 viewBox="0 0 566.8 307.4" style="enable-background:new 0 0 566.8 307.4;" xml:space="preserve">
<style type="text/css">
	.st0{fill:#222222;}
	.st1{fill:none;stroke:#222222;stroke-width:7;stroke-miterlimit:10;}
</style>
<title>Logo</title>
<path class="st0" d="M0,16.7h45l29.6,73.4c3.7,9.8,6.8,20.3,10.5,30.5h1.1c3.7-10.2,6.8-20.8,10.4-30.5l28.7-73.4h45.1v165.2h-37.6
	v-60.6c0-16.1,3.3-40.1,5.3-56.1h-1.1l-15,39.1l-25.8,63.3H73.3l-25.9-63.3L32.9,65.2h-1.1c2,16,5.3,40,5.3,56.1v60.6H0L0,16.7z"/>
<path class="st0" d="M244.9,123l-55-106.3H234l16.3,38c4.9,12.4,9.7,23.8,14.9,36.6h1.1c5.2-12.8,10.4-24.2,15.4-36.6l16.4-38h43.1
	l-55,106.3v58.9H245L244.9,123z"/>
<path class="st0" d="M0.1,217.7h30.3c19.4,0,35,6.9,35,28.4c0,20.7-15.8,29.9-34.5,29.9H20.1v29.9h-20V217.7z M29.8,260.1
	c11,0,16.1-4.9,16.1-14.1s-5.9-12.5-16.7-12.5h-9.1v26.6H29.8z"/>
<path class="st0" d="M76.6,261.4c0-28.8,16.3-45.3,40-45.3s40,16.6,40,45.3s-16.3,46.1-40,46.1S76.6,290.2,76.6,261.4z M136.3,261.4
	c0-17.7-7.6-28.1-19.6-28.1S97,243.7,97,261.4s7.6,28.9,19.6,28.9S136.3,279,136.3,261.4z"/>
<path class="st0" d="M167.6,294.7L179,281c6.3,5.5,14.4,9.2,21.6,9.2c8.3,0,12.4-3.3,12.4-8.5c0-5.5-5-7.3-12.7-10.5l-11.5-4.9
	c-9.1-3.7-17.8-11.2-17.8-24c0-14.6,13.1-26.3,31.4-26.3c10.6,0,20.8,4.1,28.4,11.5l-10.1,12.6c-5.8-4.4-11.3-6.9-18.3-6.9
	s-11.3,2.9-11.3,7.9c0,5.4,5.8,7.4,13.5,10.4l11.2,4.5c10.8,4.4,17.5,11.5,17.5,24c0,14.6-12.2,27.3-33.2,27.3
	C188.2,307.4,176.5,302.9,167.6,294.7z"/>
<path class="st0" d="M248.5,217.7h19.9v88.1h-19.9V217.7z"/>
<path class="st0" d="M306.4,234.4h-24.3v-16.7h68.5v16.7h-24.2v71.4h-19.9V234.4z"/>
<path class="st0" d="M364.4,217.7h19.9v88.1h-19.9V217.7z"/>
<path class="st0" d="M400.9,261.4c0-28.8,16.3-45.3,40-45.3s40,16.6,40,45.3s-16.3,46.1-40,46.1S400.9,290.2,400.9,261.4z
	 M460.6,261.4c0-17.7-7.6-28.1-19.6-28.1s-19.6,10.4-19.6,28.1s7.6,28.9,19.6,28.9S460.6,279,460.6,261.4z"/>
<path class="st0" d="M497.6,217.7H518l23,43.8l8.7,19.4h0.5c-0.9-9.3-2.5-21.7-2.5-32.1v-31.1h19v88.1h-20.4l-23-44l-8.7-19.3h-0.5
	c0.9,9.7,2.5,21.5,2.5,31.9v31.3h-19L497.6,217.7z"/>
<g id="Layer_1">
	<path class="st1" d="M561.6,31.9L505.5,3.8c-0.8-0.4-1.7-0.4-2.6-0.1l-67.3,27.5L380.8,3.8c-1.5-0.8-3.4-0.1-4.2,1.4
		c-0.2,0.4-0.3,0.9-0.3,1.4v155.9c0,1.2,0.7,2.3,1.9,2.9l56.1,24.9c0.7,0.3,1.6,0.4,2.3,0.1l67.4-24.5l55,24.4
		c1.6,0.7,3.4,0,4.1-1.6c0,0,0,0,0,0c0.2-0.4,0.3-0.8,0.3-1.3V34.7C563.4,33.5,562.7,32.4,561.6,31.9z M438.6,36.8L501,11.3v149.1
		L438.6,183V36.8z M382.5,11.7l49.9,24.9v146l-49.9-22.2V11.7z M557.1,182.7l-49.9-22.2V11.7l49.9,24.9V182.7z"/>
</g>
</svg>
