<?xml version="1.0" encoding="utf-8"?>
<!-- Generator: Adobe Illustrator 23.0.3, SVG Export Plug-In . SVG Version: 6.00 Build 0)  -->
<svg version="1.1"
	 id="Слой_1" xmlns:cc="http://creativecommons.org/ns#" xmlns:dc="http://purl.org/dc/elements/1.1/" xmlns:rdf="http://www.w3.org/1999/02/22-rdf-syntax-ns#"
	 xmlns="http://www.w3.org/2000/svg" xmlns:xlink="http://www.w3.org/1999/xlink" x="0px" y="0px" viewBox="0 0 24 24"
	 style="enable-background:new 0 0 24 24;" xml:space="preserve">
<style type="text/css">
	.st0{fill:#222222;}
</style>
<g transform="translate(0 -1028.4)">
	<path class="st0" d="M12,1028.4c-4.4,0-8,3.6-8,8c0,1.4,0.4,2.8,1,3.9c0.1,0.2,0.2,0.4,0.3,0.6l6.6,11.5l6.6-11.5
		c0.1-0.2,0.2-0.3,0.3-0.5l0.1-0.1c0.6-1.2,1-2.5,1-3.9C20,1032,16.4,1028.4,12,1028.4z M12,1032.4c2.2,0,4,1.8,4,4c0,2.2-1.8,4-4,4
		c-2.2,0-4-1.8-4-4C8,1034.2,9.8,1032.4,12,1032.4z"/>
	<path class="st0" d="M12,1031.4c-2.8,0-5,2.2-5,5c0,2.8,2.2,5,5,5c2.8,0,5-2.2,5-5C17,1033.6,14.8,1031.4,12,1031.4z M12,1033.4
		c1.7,0,3,1.3,3,3s-1.3,3-3,3s-3-1.3-3-3S10.3,1033.4,12,1033.4z"/>
</g>
</svg>
